# xmcd CD database file
#
# Track frame offsets:
#	150
#	15988
#	32034
#	47881
#
# Disc length: 850 seconds
#
# Revision: 1
# Processed by: cddbd v1.5.1PL0 Copyright (c) Steve Scherf et al.
# Submitted via: CDex 1.51
#
DISCID=26035004
DTITLE=鈴木亜美 - FOREVER LOVE
DYEAR=2004
DGENRE=JPop
TTITLE0=FOREVER LOVE
TTITLE1=CHAIN LOVE
TTITLE2=FOREVER LOVE(Back Track)
TTITLE3=CHAIN LOVE(Back Track)
EXTD=YEAR: 2004
EXTT0=
EXTT1=
EXTT2=
EXTT3=
PLAYORDER=
